# xmcd
#
# Track frame offsets: 
#        150
#        28227
#        51798
#        75015
#        98607
#        118104
#        137861
#        164762
#        184909
#        209058
#        234169
#        257444
#
# Disc length: 3722 seconds
#
# Revision: 0
# Processed by: cddbd v1.5.2PL0 Copyright (c) Steve Scherf et al.
# Submitted via: ExactAudioCopy v1.0b3
#
DISCID=9f0e880c
DTITLE=Che Linh, Huong Lan - Ao Nguoi Trinh Nu
DYEAR=1991
DGENRE=
TTITLE0=Can nha mau tim
TTITLE1=Che Linh - Chu nhat buon
TTITLE2=Huong Lan - Loi ve dat Me
TTITLE3=Che Linh - Dep long nguoi yeu
TTITLE4=Ao dep nang dau
TTITLE5=Che Linh - Thi tran ve dem
TTITLE6=Uoc mong doi ta
TTITLE7=Che Linh - Hoa su nha nang
TTITLE8=Huong Lan - Pho vang em roi
TTITLE9=Che Linh - Thu cho vo hien
TTITLE10=Hai dua gian nhau
TTITLE11=Che Linh - Khu pho ngay xua
EXTD=
EXTT0=
EXTT1=
EXTT2=
EXTT3=
EXTT4=
EXTT5=
EXTT6=
EXTT7=
EXTT8=
EXTT9=
EXTT10=
EXTT11=
PLAYORDER=
